<!-- NW Stacked Logo White -->
<svg id="logoVert" class="logo" viewBox="0 0 280 280" xmlns="http://www.w3.org/2000/svg" version="1.1" aria-labelledby="logo-title"><style>.white{fill:#fff}</style><path id="logoWordmark" class="white" d="M91.5 242.4c2.4 0 4.4 1.8 4.4 4.1s-2 4.1-4.4 4.1c-2.4 0-4.4-1.8-4.4-4.1.1-2.2 2.1-4.1 4.4-4.1m111.4 0c2.4 0 4.4 1.8 4.4 4.1s-2 4.1-4.4 4.1c-2.4 0-4.4-1.8-4.4-4.1 0-2.2 2-4.1 4.4-4.1M61.6 264v15.5h-6.7v-2.6a9.63 9.63 0 01-7.3 3.2c-5.3.2-9.5-3.1-9.5-8 0-7.5 7.9-9.1 15.7-9.1h.9c0-2.1-.9-4-5-4-2.8 0-5.2.9-6.8 2.5l-4.1-4.1c2.8-2.8 6.8-4.2 11.1-4.2s6.7.6 9.1 2.8c2.1 2 2.6 5.9 2.6 8m-7 4.3h-.7c-1.1 0-3.9.1-6 .7-1.4.4-2.6 1.3-2.6 2.6 0 1.9 1.8 2.7 3.5 2.7 3.6 0 5.7-2.3 5.7-5.2v-.8m21.9-14.5v-8.1h-7.3v8.1h-5v6.1h5v10.9c0 3.6.6 5.8 2.1 7.3 1.4 1.4 3.4 2 6.5 2 2 0 3.9-.4 5.5-1v-5.8c-.9.3-2.3.5-3.9.5-2.3 0-2.8-1.2-2.8-3.3V260h6.8v-6.1h-6.9m192.3 13.2v1.9H250c.1 2.6 3.1 4.9 6.6 5 3.3.1 5-1.2 6.7-3l4.6 3.4c-2.8 3.6-6.3 5.6-11.2 5.6-7.8 0-14.2-4.9-14.2-13.4 0-6.9 4.3-13.4 13.3-13.4 9.2 0 12.9 7.2 12.9 13.9m-7.7-3.3c-.3-2.8-1.9-4.8-5.5-4.8-3.1.1-5.2 2.2-5.5 4.8h11M25.6 242.2v25.3L9.8 242.2H0v37.3h8v-26.2l16.2 26.2h9.4v-37.3h-8m163.3 11.6l-4.1 16-4.1-16h-7.6l-4 15.9-4.2-15.9h-8l8.2 25.7h7.3l4.4-16.2 4.9 16.2h6.8l8.1-25.7h-7.7m-93.7 0h-7.3v25.7h7.3v-25.7m104 0h7.4v25.7h-7.4zm-46.8 1.8c-1.5-1.6-3.5-2.4-6.3-2.3-2.8 0-6.1 1.4-7.6 3.4v-2.8h-7.1v25.7h7.4v-13.9c0-1.8.5-3.2 1.3-4.1.7-.8 1.8-1.4 3.2-1.5 1.7-.1 2.6.6 3.2 1.4.8 1 1 2.7 1 5.1v13h7.4v-16c-.1-3.3-.5-5.9-2.5-8m85.9-13.4v37.2h-6.9v-2.9c-1.6 1.9-4.3 3.5-7.9 3.5-3.5 0-6.6-1.2-8.9-3.5-2.4-2.4-3.8-6-3.8-10 0-7.8 5.2-13.4 12.4-13.4 3.1 0 5.8 1 7.8 2.9v-13.8h7.3zm-7.2 24.4c0-3.5-2.2-6.9-6.5-6.9s-6.5 3.5-6.5 6.9c0 3.4 2.2 6.9 6.5 6.9 4.3.1 6.5-3.4 6.5-6.9m-103.9 0c0 7.8-5.8 13.4-13.8 13.4s-13.8-5.7-13.8-13.4c0-7.8 5.8-13.4 13.8-13.4 7.9 0 13.8 5.7 13.8 13.4m-13.9-6.9c-4.3 0-6.5 3.5-6.5 6.9 0 3.4 2.2 6.9 6.5 6.9s6.5-3.5 6.5-6.9c0-3.4-2.2-6.9-6.5-6.9m158.7-8.3h1.2v-2.7h.9l1.7 2.7h1.3l-1.7-2.8c.9-.1 1.6-.7 1.6-1.8 0-1.3-.8-2-2.4-2H272v6.6zm1.2-5.7h.9c.8 0 1.6 0 1.6.9s-.8.9-1.6.9h-.9v-1.8zm-4.8 2.4a5.91 5.91 0 0011.8 0 5.91 5.91 0 00-11.8 0m1 0a4.8 4.8 0 019.6 0c0 2.6-2.2 4.8-4.8 4.8-2.6 0-4.8-2.2-4.8-4.8"/><path id="logoN" class="white" d="M176.7 51.7v85l-10.9-10.6V159c0 11.8-4.4 17.5-4.6 17.7l12 11.3h41.3V51.7h-37.8m-90.4 54s16.9 16 18.4 17.4c-1.6-5.9-2.9-13.9.3-19l1.8-3c-1.7-9.3-1.1-19.1 4.4-25.2l1.5-1.6-23-22.6H48.5v136.4h37.8v-82.4"/><path id="logoEagle" class="white" d="M159.1 174c-4.2 4.9-9.7 11.8-8.5 16.9.9 4.2 6.8 6.8 6.8 6.8l12.7 6.9-8.2 7.2 9.9 3.1s-9.1 9.3-10.1 10.2c-2.6.4-5.3.7-8.3.7-21 0-50.2-12.4-57.4-12.5-8.7-.1-19.6 4.9-19.6 4.9L82 212s-7.5 1.5-14.7.9l10.2-6.9c-9-.3-16.8-3-20.5-5.6 0 0 16.5-1.3 38.9-1.1 9.1.1 24.4 1 24.4 1-7.6-3.2-14.7-7.5-17.7-15l14.5 2.2c-6.1-3.7-14.9-13.1-16.5-20.3l16.2 5.7c-2.9-3.1-12.9-12.5-14.7-23.3l12.8 8c-3.4-3.4-12.4-21.3-10.9-26.6l11.9 8c-5.7-7.1-12.4-25.8-7.8-33.1 3.6 14.1 11.7 19.2 11.7 19.2-5.3-7.7-16.7-34.9-5.8-46.8 2.9 27.1 14.4 36.3 14.4 36.3-9.5-15.2-20.4-61.9-.1-71.3-4 30 5.6 46.3 5.6 46.3-6-27.6-5.8-66.8 14.7-70.4-10.1 29.5-2.9 52.3-2.9 52.3-1.5-69 20.8-67.9 20.8-67.9s-3.7 19.6-3.7 54.5V159c-.2 7.2-.8 11.3-3.7 15zm13.2 24.4c8.9.7 15.3 1.3 21.7 2.1 2.4.3 3.4 3.1 3.7 4.4-3.1-.8-7.9-1-7.9-1l-.3 2.9s4.1-1.2 8.7-1.2c0 0 9.3 0 8.8 6.2-2.5-1.8-7.7-1.1-9.2-.8-4.7.8-9.1 2.9-14.2 5.6-4.7 2.5-9.8 5.2-15.7 7 2.6-2.5 9.4-10.1 9.4-10.1l-9.1-3.2 7.4-6.5-11.4-6.2c2.9.4 5.5.6 8.1.8"/></svg>
