<svg version="1.1" id="ppi" xmlns="http://www.w3.org/2000/svg" x="0" y="0" viewBox="0 0 168.7 56.1" xml:space="preserve"><style>.st0{fill:#fff}</style><path class="st0" d="M16.4 43.3c.4 0 .8.3.8.7 0 .4-.4.7-.8.7s-.8-.3-.8-.7c0-.3.4-.7.8-.7M36.4 43.3c.4 0 .8.3.8.7 0 .4-.4.7-.8.7s-.8-.3-.8-.7c0-.3.4-.7.8-.7M9.8 48h-.1c-.2 0-.7 0-1.1.1-.3.1-.5.2-.5.5s.3.5.6.5c.6 0 1-.4 1-.9V48zm1.2-.8V50H9.8v-.5c-.3.3-.7.6-1.3.6-1 0-1.7-.6-1.7-1.4 0-1.3 1.4-1.6 2.8-1.6h.2c0-.4-.2-.7-.9-.7-.5 0-.9.2-1.2.4l-.8-.8c.5-.5 1.2-.7 2-.7s1.2.1 1.6.5c.5.3.5 1 .5 1.4M13.7 45.4V44h-1.3v1.4h-.9v1.1h.9v1.9c0 .7.1 1 .4 1.3.2.2.6.4 1.2.4.4 0 .7-.1 1-.2v-1c-.2.1-.4.1-.7.1-.4 0-.5-.2-.5-.6v-1.9H15v-1.1h-1.3zM46.8 47.2c-.1-.5-.3-.9-1-.9-.6 0-.9.4-1 .9h2zm1.4.6v.3h-3.4c0 .5.6.9 1.2.9s.9-.2 1.2-.5l.8.6c-.5.6-1.1 1-2 1-1.4 0-2.5-.9-2.5-2.4 0-1.2.8-2.4 2.4-2.4 1.6 0 2.3 1.3 2.3 2.5M4.6 43.3v4.5l-2.8-4.5H0V50h1.4v-4.7L4.3 50H6v-6.7zM33.9 45.4l-.8 2.8-.7-2.8H31l-.7 2.8-.7-2.8h-1.5l1.5 4.6h1.3l.8-2.9.9 2.9h1.2l1.5-4.6zM15.8 45.4h1.3V50h-1.3zM35.7 45.4H37V50h-1.3zM27.3 45.7c-.3-.3-.6-.4-1.1-.4-.5 0-1.1.2-1.4.6v-.5h-1.3V50h1.3v-2.5c0-.3.1-.6.2-.7.1-.2.3-.2.6-.3.3 0 .5.1.6.3.1.2.2.5.2.9V50h1.3v-2.9c.1-.6 0-1-.4-1.4M41.5 47.7c0-.6-.4-1.2-1.2-1.2-.8 0-1.2.6-1.2 1.2s.4 1.2 1.2 1.2c.8 0 1.2-.6 1.2-1.2m1.2-4.4V50h-1.2v-.5c-.3.3-.8.6-1.4.6-.6 0-1.2-.2-1.6-.6-.4-.4-.7-1.1-.7-1.8 0-1.4.9-2.4 2.2-2.4.6 0 1 .2 1.4.5v-2.5h1.3zM20.3 46.4c-.8 0-1.2.6-1.2 1.2s.4 1.2 1.2 1.2c.8 0 1.2-.6 1.2-1.2 0-.5-.4-1.2-1.2-1.2m2.5 1.3c0 1.4-1 2.4-2.5 2.4-1.4 0-2.5-1-2.5-2.4s1-2.4 2.5-2.4 2.5 1 2.5 2.4M48.3 44.4c0-.5.4-.9.9-.9s.9.4.9.9-.4.9-.9.9c-.5-.1-.9-.5-.9-.9m-.2 0c0 .6.5 1.1 1.1 1.1.6 0 1.1-.5 1.1-1.1 0-.6-.5-1.1-1.1-1.1-.6 0-1.1.5-1.1 1.1m.9-.5h.2c.1 0 .3 0 .3.2s-.1.2-.3.2H49v-.4zm-.2 1h.2v-.5h.2l.3.5h.2l-.3-.5c.2 0 .3-.1.3-.3 0-.2-.1-.4-.4-.4h-.5v1.2z"/><g><path class="st0" d="M30.1 0zM20.6 13.2v-.4.4zM32 9.2v15.2l-1.9-1.8v5.8c0 1.3-.1 2.2-.8 3l-.1.1 2.1 2h7.4V9.2H32zM15.8 18.9s3 2.8 3.2 3.1c-.3-1.1-.5-2.4.1-3.4l.3-.5c-.3-1.7-.2-3.4.8-4.5l.3-.3-4.1-4H9.1v24.3h6.7V18.9z"/><path class="st0" d="M31.2 35.4c1.6.1 2.7.2 3.9.4.4.1.6.6.7.8-.5-.1-1.4-.2-1.4-.2v.5s.7-.2 1.5-.2c0 0 1.7 0 1.6 1.1-.5-.3-1.4-.2-1.6-.1-.8.1-1.6.5-2.5 1-.8.4-1.7.9-2.8 1.2.5-.5 1.7-1.8 1.7-1.8l-1.6-.6 1.3-1.2-2-1.1c.2.1.7.2 1.2.2zM28.8 31c-.8.9-1.7 2.1-1.5 3 .2.7 1.2 1.2 1.2 1.2l2.3 1.2-1.5 1.3 1.8.6s-1.6 1.7-1.8 1.8c-.5.1-1 .1-1.5.1-3.7 0-9-2.2-10.3-2.2-1.5 0-3.5.9-3.5.9l1-1.1s-1.3.3-2.6.2l1.8-1.2c-1.6-.1-3-.5-3.7-1 0 0 3-.2 7-.2 1.6 0 4.4.2 4.4.2-1.4-.6-2.6-1.3-3.2-2.7l2.6.4c-1.1-.7-2.7-2.3-3-3.6l2.9 1c-.5-.6-2.3-2.2-2.6-4.2l2.3 1.4c-.6-.6-2.2-3.8-1.9-4.7l2.1 1.4c-1-1.3-2.2-4.6-1.4-5.9.6 2.5 2.1 3.4 2.1 3.4-.9-1.4-3-6.2-1-8.4.5 4.8 2.6 6.5 2.6 6.5-1.7-2.7-3.6-11 0-12.7-.7 5.4 1 8.3 1 8.3-1.1-4.9-1-11.9 2.6-12.6-1.8 5.3-.5 9.3-.5 9.3C26.1.4 30.1.6 30.1.6s-.7 3.5-.7 9.7v18c0 1.3-.1 2.1-.6 2.7z"/></g><g><path class="st0" d="M91.6 7h2.7c1.6 0 2.6.9 2.6 2.3 0 1.6-1.2 2.4-2.7 2.4h-1.1v2h-1.5V7zm2.7 3.3c.7 0 1.2-.4 1.2-1 0-.7-.5-1-1.2-1h-1.1v2.1h1.1zM97.7 7h3.1c.9 0 1.5.2 2 .7.4.4.6.9.6 1.5 0 1.1-.6 1.8-1.4 2.1l1.6 2.4h-1.7l-1.4-2.1h-1.2v2.1h-1.5V7zm3 3.2c.7 0 1.1-.4 1.1-.9 0-.6-.4-1-1.2-1h-1.5v1.9h1.6zM104.1 10.3c0-1.9 1.5-3.5 3.6-3.5s3.6 1.5 3.6 3.4-1.5 3.5-3.6 3.5c-2.1.1-3.6-1.5-3.6-3.4zm5.6 0c0-1.2-.8-2.1-2-2.1s-2 .9-2 2.1c0 1.1.8 2.1 2 2.1 1.1 0 2-.9 2-2.1zM112.1 10.8V7h1.5v3.8c0 1.1.5 1.7 1.4 1.7.9 0 1.4-.5 1.4-1.6V7h1.5v3.8c0 2-1.1 3-2.9 3-1.8 0-2.9-1-2.9-3zM119.2 7h2.6c2.1 0 3.6 1.4 3.6 3.3s-1.5 3.4-3.6 3.4h-2.6V7zm1.5 1.3v4h1.1c1.2 0 2-.8 2-2s-.8-2-2-2h-1.1zM91.6 19h2.7c1.6 0 2.6.9 2.6 2.3 0 1.6-1.2 2.4-2.7 2.4h-1.1v2h-1.5V19zm2.7 3.4c.7 0 1.2-.4 1.2-1 0-.7-.5-1-1.2-1h-1.1v2.1h1.1zM99.4 19h1.4l2.9 6.8h-1.5l-.6-1.5h-2.8l-.8 1.4h-1.5l2.9-6.7zm1.5 3.9l-.9-2.2-.9 2.2h1.8zM104.4 19h3.1c.9 0 1.5.2 2 .7.4.4.6.9.6 1.5 0 1.1-.6 1.8-1.4 2.1l1.6 2.4h-1.7l-1.4-2.1H106v2.1h-1.5V19zm2.9 3.3c.7 0 1.1-.4 1.1-.9 0-.6-.4-1-1.2-1h-1.5v1.9h1.6zM112.6 20.4h-2V19h5.6v1.4h-2v5.3h-1.5v-5.3zM116.9 19h1.4l3.1 4.1V19h1.5v6.7h-1.3l-3.2-4.3v4.3h-1.5V19zM124.2 19h5.1v1.3h-3.6v1.4h3.2V23h-3.2v1.4h3.6v1.3h-5.1V19zM130.4 19h3.1c.9 0 1.5.2 2 .7.4.4.6.9.6 1.5 0 1.1-.6 1.8-1.4 2.1l1.6 2.4h-1.7l-1.4-2.1H132v2.1h-1.5V19zm2.9 3.3c.7 0 1.1-.4 1.1-.9 0-.6-.4-1-1.2-1h-1.5v1.9h1.6zM91.3 34.4c0-1.9 1.5-3.5 3.6-3.5s3.6 1.5 3.6 3.5c0 1.9-1.5 3.5-3.6 3.5s-3.6-1.5-3.6-3.5zm5.6 0c0-1.2-.8-2.1-2-2.1s-2 .9-2 2.1c0 1.1.8 2.1 2 2.1s2-.9 2-2.1zM99.5 31.1h5.1v1.3H101v1.4h3.2v1.3H101v2.6h-1.5v-6.6zM91.7 43.1h1.5v6.7h-1.5v-6.7zM94.6 43.1H96l3.1 4.1v-4.1h1.5v6.7h-1.3L96 45.6v4.3h-1.5v-6.8zM101.8 43.1h2.6c2.1 0 3.6 1.4 3.6 3.3s-1.5 3.4-3.6 3.4h-2.6v-6.7zm1.5 1.4v4h1.1c1.2 0 2-.8 2-2s-.8-2-2-2h-1.1zM109.1 43.1h5.1v1.3h-3.6v1.4h3.2v1.3h-3.2v1.4h3.6v1.3h-5.1v-6.7zM115.2 43.1h2.7c1.6 0 2.6.9 2.6 2.3 0 1.6-1.2 2.4-2.7 2.4h-1.1v2h-1.5v-6.7zm2.6 3.4c.7 0 1.2-.4 1.2-1 0-.7-.5-1-1.2-1h-1.1v2.1h1.1zM121.3 43.1h5.1v1.3h-3.6v1.4h3.2v1.3h-3.2v1.4h3.6v1.3h-5.1v-6.7zM127.4 43.1h1.4l3.1 4.1v-4.1h1.5v6.7h-1.3l-3.2-4.3v4.3h-1.5v-6.7zM134.7 43.1h2.6c2.1 0 3.6 1.4 3.6 3.3s-1.5 3.4-3.6 3.4h-2.6v-6.7zm1.5 1.4v4h1.1c1.2 0 2-.8 2-2s-.8-2-2-2h-1.1zM141.9 43.1h5.1v1.3h-3.6v1.4h3.2v1.3h-3.2v1.4h3.6v1.3h-5.1v-6.7zM148.1 43.1h1.4l3.1 4.1v-4.1h1.5v6.7h-1.3l-3.2-4.3v4.3h-1.5v-6.7zM156.9 44.5h-2v-1.4h5.6v1.4h-2v5.3H157v-5.3zM160.7 48.9l.9-1c.6.5 1.2.8 2 .8.6 0 1-.2 1-.6 0-.4-.2-.6-1.4-.9-1.4-.3-2.2-.7-2.2-2.1 0-1.2 1-2 2.3-2 1 0 1.8.3 2.5.9l-.8 1c-.6-.4-1.2-.7-1.7-.7-.6 0-.9.3-.9.6 0 .4.3.6 1.4.9 1.4.4 2.1.8 2.1 2 0 1.3-1 2.1-2.5 2.1-.9 0-1.9-.3-2.7-1zM166.3 44.1l.1-.2c.1.1.3.2.4.2.1 0 .2 0 .2-.1s-.1-.1-.3-.2c-.3-.1-.4-.1-.4-.4 0-.2.2-.4.4-.4s.4.1.5.2l-.1.2c-.1-.1-.2-.1-.3-.1-.1 0-.2.1-.2.1 0 .1.1.1.3.2.3.1.4.1.4.4 0 .2-.2.4-.5.4-.1-.1-.4-.2-.5-.3zm1.3-1h.3l.3.5.3-.5h.3v1.2h-.3v-.8l-.3.5-.3-.5v.8h-.3v-1.2z"/></g><path fill="none" stroke="#fff" stroke-miterlimit="10" d="M69.9 2.5v53.6"/></svg>